<svg width="1065" height="812" viewBox="0 0 1065 812" fill="none" xmlns="http://www.w3.org/2000/svg">
<path d="M406.546 1C630.117 1.00006 811.358 182.296 811.358 405.936C811.358 629.575 630.117 810.87 406.546 810.87C182.975 810.87 1.73477 629.575 1.73462 405.936C1.73462 182.296 182.975 1 406.546 1Z" fill="#F8E923" fill-opacity="0.3" stroke="#1A1A1A" stroke-width="2"/>
<path d="M406.546 657.614C545.502 657.614 658.148 544.934 658.148 405.935C658.148 266.937 545.502 154.256 406.546 154.256C267.59 154.256 154.944 266.937 154.944 405.935C154.944 544.934 267.59 657.614 406.546 657.614Z" fill="#F8E923" fill-opacity="0.3" stroke="#1A1A1A" stroke-width="2"/>
<path d="M407.56 535.735C479.235 535.184 536.892 476.616 536.342 404.919C535.792 333.222 477.241 275.547 405.566 276.098C333.891 276.648 276.234 335.216 276.784 406.913C277.334 478.61 335.885 536.285 407.56 535.735Z" fill="#F8E923" stroke="#1A1A1A" stroke-width="2"/>
<path d="M393.695 415.889H391.535L388.815 408.329H375.055L372.335 415.889H370.175L380.295 387.889H383.575L393.695 415.889ZM388.095 406.409L382.175 389.929H381.695L375.735 406.409H388.095ZM408.272 400.889C409.365 400.889 410.392 400.689 411.352 400.289C412.338 399.862 413.138 399.249 413.752 398.449C414.392 397.622 414.712 396.596 414.712 395.369C414.712 394.169 414.392 393.156 413.752 392.329C413.138 391.502 412.338 390.902 411.352 390.529C410.392 390.129 409.365 389.929 408.272 389.929H399.472V400.889H408.272ZM412.752 401.529C413.445 401.529 414.085 401.716 414.672 402.089C415.285 402.436 415.765 402.916 416.112 403.529C416.485 404.116 416.672 404.756 416.672 405.449V415.889H414.552C414.552 412.396 414.552 408.902 414.552 405.409C414.552 404.716 414.298 404.129 413.792 403.649C413.312 403.142 412.725 402.889 412.032 402.889H399.432V415.889H397.232V387.889H408.432C410.272 387.889 411.818 388.209 413.072 388.849C414.352 389.462 415.312 390.302 415.952 391.369C416.618 392.409 416.952 393.596 416.952 394.929C416.952 396.129 416.698 397.156 416.192 398.009C415.685 398.862 415.138 399.502 414.552 399.929C413.992 400.356 413.418 400.729 412.832 401.049H412.752V401.529ZM442.559 408.089L442.679 407.849H445.039L444.999 407.969C444.493 409.462 443.746 410.836 442.759 412.089C441.799 413.342 440.519 414.369 438.919 415.169C437.319 415.969 435.426 416.369 433.239 416.369C430.333 416.369 427.919 415.662 425.999 414.249C424.106 412.809 422.706 410.982 421.799 408.769C420.919 406.556 420.479 404.249 420.479 401.849C420.479 399.449 420.919 397.156 421.799 394.969C422.706 392.756 424.119 390.942 426.039 389.529C427.959 388.116 430.359 387.409 433.239 387.409C435.453 387.409 437.359 387.822 438.959 388.649C440.559 389.449 441.839 390.489 442.799 391.769C443.786 393.022 444.533 394.409 445.039 395.929H442.679C441.933 394.009 440.773 392.449 439.199 391.249C437.653 390.049 435.653 389.449 433.199 389.449C430.826 389.449 428.839 390.062 427.239 391.289C425.666 392.489 424.519 394.036 423.799 395.929C423.079 397.796 422.719 399.756 422.719 401.809C422.719 403.889 423.079 405.889 423.799 407.809C424.519 409.702 425.666 411.262 427.239 412.489C428.839 413.716 430.826 414.329 433.199 414.329C435.599 414.329 437.559 413.756 439.079 412.609C440.626 411.436 441.786 409.929 442.559 408.089Z" fill="#1D1D1B"/>
<path d="M748.822 45.7673C749.915 45.7673 750.942 45.5673 751.902 45.1672C752.888 44.7673 753.688 44.1539 754.302 43.3273C754.915 42.5006 755.222 41.4739 755.222 40.2473C755.222 39.0473 754.915 38.0472 754.302 37.2472C753.688 36.4206 752.888 35.8206 751.902 35.4473C750.942 35.0472 749.915 34.8472 748.822 34.8472H740.062V45.7673H748.822ZM748.982 32.8072C750.288 32.8072 751.582 33.0606 752.862 33.5672C754.168 34.0472 755.262 34.8472 756.142 35.9672C757.022 37.0872 757.462 38.5139 757.462 40.2473C757.462 42.0339 757.008 43.4872 756.102 44.6072C755.222 45.7273 754.142 46.5406 752.862 47.0473C751.582 47.5273 750.288 47.7673 748.982 47.7673H740.062V60.8073H737.822V32.8072H748.982ZM778.491 34.8472H763.851V45.7673H777.171V47.7273H763.851V58.7673H778.491V60.8073H761.611L761.651 32.8072H778.491V34.8472ZM799.742 48.9273C800.755 49.9673 801.262 51.3673 801.262 53.1273C801.262 54.5406 800.915 55.8606 800.222 57.0873C799.528 58.3139 798.422 59.3273 796.902 60.1273C795.382 60.9006 793.475 61.2873 791.182 61.2873C788.862 61.2873 786.942 60.8739 785.422 60.0473C783.928 59.2206 782.822 58.1673 782.102 56.8873C781.408 55.5806 781.062 54.2206 781.062 52.8073H783.302C783.302 53.8739 783.568 54.9006 784.102 55.8873C784.662 56.8739 785.542 57.6873 786.742 58.3273C787.942 58.9406 789.422 59.2473 791.182 59.2473C792.968 59.2473 794.448 58.9539 795.622 58.3673C796.795 57.7806 797.648 57.0339 798.182 56.1273C798.742 55.1939 799.022 54.1939 799.022 53.1273C799.022 52.0073 798.688 51.0873 798.022 50.3673C797.355 49.6473 796.515 49.0873 795.502 48.6873C794.515 48.2606 793.328 47.9006 791.942 47.6073C791.542 47.5273 791.115 47.4473 790.662 47.3672L790.022 47.2473C788.395 46.9539 787.008 46.5939 785.862 46.1672C784.715 45.7139 783.728 45.0073 782.902 44.0472C782.075 43.0606 781.662 41.7272 781.662 40.0472C781.662 38.7406 781.995 37.5139 782.662 36.3673C783.328 35.1939 784.382 34.2339 785.822 33.4872C787.262 32.7139 789.088 32.3273 791.302 32.3273C793.515 32.3273 795.355 32.7139 796.822 33.4872C798.288 34.2339 799.355 35.1939 800.022 36.3673C800.688 37.5406 801.022 38.7672 801.022 40.0472V40.4473H798.782V40.0472C798.782 39.0873 798.515 38.1806 797.982 37.3273C797.475 36.4473 796.662 35.7406 795.542 35.2072C794.422 34.6473 793.008 34.3673 791.302 34.3673C789.622 34.3673 788.222 34.6473 787.102 35.2072C786.008 35.7406 785.195 36.4473 784.662 37.3273C784.155 38.1806 783.902 39.0873 783.902 40.0472C783.902 41.2206 784.195 42.1673 784.782 42.8873C785.395 43.5806 786.128 44.0873 786.982 44.4072C787.835 44.7006 788.915 44.9673 790.222 45.2073L790.862 45.3273H790.942C793.022 45.7006 794.755 46.1406 796.142 46.6473C797.555 47.1273 798.755 47.8873 799.742 48.9273ZM826.941 60.8073H824.781L822.061 53.2473H808.301L805.581 60.8073H803.421L813.541 32.8072H816.821L826.941 60.8073ZM821.341 51.3273L815.421 34.8472H814.941L808.981 51.3273H821.341ZM841.518 45.8072C842.611 45.8072 843.638 45.6072 844.598 45.2073C845.585 44.7806 846.385 44.1673 846.998 43.3673C847.638 42.5406 847.958 41.5139 847.958 40.2873C847.958 39.0873 847.638 38.0739 846.998 37.2472C846.385 36.4206 845.585 35.8206 844.598 35.4473C843.638 35.0472 842.611 34.8472 841.518 34.8472H832.718V45.8072H841.518ZM845.998 46.4472C846.691 46.4472 847.331 46.6339 847.918 47.0072C848.531 47.3539 849.011 47.8339 849.358 48.4473C849.731 49.0339 849.918 49.6739 849.918 50.3673V60.8073H847.798C847.798 57.3139 847.798 53.8206 847.798 50.3273C847.798 49.6339 847.545 49.0473 847.038 48.5673C846.558 48.0606 845.971 47.8073 845.278 47.8073H832.678V60.8073H830.478V32.8072H841.678C843.518 32.8072 845.065 33.1272 846.318 33.7672C847.598 34.3806 848.558 35.2206 849.198 36.2872C849.865 37.3273 850.198 38.5139 850.198 39.8472C850.198 41.0472 849.945 42.0739 849.438 42.9272C848.931 43.7806 848.385 44.4206 847.798 44.8473C847.238 45.2739 846.665 45.6473 846.078 45.9673H845.998V46.4472ZM866.205 59.2473C868.525 59.2473 870.445 58.6473 871.965 57.4473C873.512 56.2206 874.632 54.6606 875.325 52.7673C876.045 50.8739 876.405 48.9006 876.405 46.8473C876.405 44.7673 876.045 42.7806 875.325 40.8872C874.632 38.9939 873.512 37.4339 871.965 36.2073C870.445 34.9806 868.525 34.3673 866.205 34.3673C863.885 34.3673 861.952 34.9806 860.405 36.2073C858.885 37.4072 857.765 38.9672 857.045 40.8872C856.325 42.7806 855.965 44.7673 855.965 46.8473C855.965 48.9006 856.325 50.8739 857.045 52.7673C857.765 54.6606 858.885 56.2206 860.405 57.4473C861.952 58.6473 863.885 59.2473 866.205 59.2473ZM866.205 32.3273C869.059 32.3273 871.419 33.0472 873.285 34.4872C875.152 35.9006 876.512 37.7139 877.365 39.9273C878.219 42.1139 878.645 44.4206 878.645 46.8473C878.645 49.2473 878.205 51.5539 877.325 53.7673C876.472 55.9539 875.112 57.7539 873.245 59.1673C871.405 60.5806 869.059 61.2873 866.205 61.2873C863.379 61.2873 861.019 60.5806 859.125 59.1673C857.259 57.7539 855.885 55.9539 855.005 53.7673C854.152 51.5539 853.725 49.2473 853.725 46.8473C853.725 44.4206 854.152 42.1139 855.005 39.9273C855.885 37.7139 857.259 35.9006 859.125 34.4872C861.019 33.0472 863.379 32.3273 866.205 32.3273ZM901.178 58.7673H912.058V60.8073H893.218V58.8073C897.618 54.8873 902.018 50.9539 906.418 47.0072C906.525 46.9273 906.792 46.6739 907.218 46.2473C908.018 45.3673 908.618 44.4873 909.018 43.6073C909.445 42.7273 909.658 41.8472 909.658 40.9673C909.658 39.8472 909.405 38.7939 908.898 37.8072C908.418 36.7939 907.645 35.9672 906.578 35.3273C905.512 34.6873 904.178 34.3673 902.578 34.3673C900.952 34.3673 899.605 34.6873 898.538 35.3273C897.498 35.9672 896.725 36.7939 896.218 37.8072C895.712 38.7939 895.458 39.8472 895.458 40.9673C895.458 41.3406 895.472 41.6473 895.498 41.8873H893.258C893.232 41.6473 893.218 41.3406 893.218 40.9673C893.218 39.5273 893.538 38.1539 894.178 36.8472C894.845 35.5139 895.872 34.4339 897.258 33.6073C898.672 32.7539 900.445 32.3273 902.578 32.3273C904.685 32.3273 906.432 32.7539 907.818 33.6073C909.232 34.4339 910.258 35.5139 910.898 36.8472C911.565 38.1539 911.898 39.5273 911.898 40.9673C911.898 42.2473 911.618 43.4873 911.058 44.6872C910.498 45.8606 909.752 46.8739 908.818 47.7273C904.925 51.2206 900.805 54.9006 896.458 58.7673V59.2473C898.085 58.9273 899.658 58.7673 901.178 58.7673ZM927.68 59.2473C929.6 59.2473 931.254 58.6473 932.64 57.4473C934.054 56.2206 935.067 54.6606 935.68 52.7673C936.32 50.8739 936.64 48.8873 936.64 46.8073C936.64 44.7272 936.32 42.7406 935.68 40.8473C935.067 38.9539 934.054 37.4072 932.64 36.2073C931.254 34.9806 929.507 34.3673 927.4 34.3673C925.294 34.3673 923.547 34.9806 922.16 36.2073C920.774 37.4072 919.76 38.9539 919.12 40.8473C918.48 42.7406 918.16 44.7272 918.16 46.8073C918.16 48.8873 918.48 50.8739 919.12 52.7673C919.76 54.6606 920.774 56.2206 922.16 57.4473C923.547 58.6473 925.387 59.2473 927.68 59.2473ZM927.16 32.3273C930.067 32.3273 932.36 33.0339 934.04 34.4472C935.72 35.8606 936.947 37.6739 937.72 39.8873C938.494 42.1006 938.88 44.4072 938.88 46.8073C938.88 49.2073 938.48 51.5139 937.68 53.7273C936.88 55.9406 935.627 57.7539 933.92 59.1673C932.214 60.5806 930.04 61.2873 927.4 61.2873C924.76 61.2873 922.587 60.5806 920.88 59.1673C919.174 57.7539 917.92 55.9406 917.12 53.7273C916.32 51.5139 915.92 49.2073 915.92 46.8073C915.92 44.4072 916.307 42.1006 917.08 39.8873C917.88 37.6739 919.107 35.8606 920.76 34.4472C922.44 33.0339 924.574 32.3273 927.16 32.3273ZM950.671 58.7673H961.551V60.8073H942.711V58.8073C947.111 54.8873 951.511 50.9539 955.911 47.0072C956.017 46.9273 956.284 46.6739 956.711 46.2473C957.511 45.3673 958.111 44.4873 958.511 43.6073C958.937 42.7273 959.151 41.8472 959.151 40.9673C959.151 39.8472 958.897 38.7939 958.391 37.8072C957.911 36.7939 957.137 35.9672 956.071 35.3273C955.004 34.6873 953.671 34.3673 952.071 34.3673C950.444 34.3673 949.097 34.6873 948.031 35.3273C946.991 35.9672 946.217 36.7939 945.711 37.8072C945.204 38.7939 944.951 39.8472 944.951 40.9673C944.951 41.3406 944.964 41.6473 944.991 41.8873H942.751C942.724 41.6473 942.711 41.3406 942.711 40.9673C942.711 39.5273 943.031 38.1539 943.671 36.8472C944.337 35.5139 945.364 34.4339 946.751 33.6073C948.164 32.7539 949.937 32.3273 952.071 32.3273C954.177 32.3273 955.924 32.7539 957.311 33.6073C958.724 34.4339 959.751 35.5139 960.391 36.8472C961.057 38.1539 961.391 39.5273 961.391 40.9673C961.391 42.2473 961.111 43.4873 960.551 44.6872C959.991 45.8606 959.244 46.8739 958.311 47.7273C954.417 51.2206 950.297 54.9006 945.951 58.7673V59.2473C947.577 58.9273 949.151 58.7673 950.671 58.7673ZM978.811 34.8472L965.211 53.0073H974.651C976.144 53.0073 977.664 53.1673 979.211 53.4873V33.4473L978.811 34.8472ZM984.771 54.9273H981.451V60.8073H979.211V54.9273H963.251V52.0873L977.691 32.8072H981.451V53.0073H984.731L984.771 54.9273Z" fill="#1D1D1B"/>
<path d="M757.582 767.151V745.911H759.822V773.911H756.302L740.142 747.951H739.742C739.955 749.524 740.062 751.084 740.062 752.631V773.911H737.822V745.911H741.342L757.462 771.871H757.902C757.688 770.244 757.582 768.671 757.582 767.151ZM777.182 772.351C779.502 772.351 781.422 771.751 782.942 770.551C784.489 769.324 785.609 767.764 786.302 765.871C787.022 763.977 787.382 762.004 787.382 759.951C787.382 757.871 787.022 755.884 786.302 753.991C785.609 752.097 784.489 750.537 782.942 749.311C781.422 748.084 779.502 747.471 777.182 747.471C774.862 747.471 772.929 748.084 771.382 749.311C769.862 750.511 768.742 752.071 768.022 753.991C767.302 755.884 766.942 757.871 766.942 759.951C766.942 762.004 767.302 763.977 768.022 765.871C768.742 767.764 769.862 769.324 771.382 770.551C772.929 771.751 774.862 772.351 777.182 772.351ZM777.182 745.431C780.035 745.431 782.395 746.151 784.262 747.591C786.129 749.004 787.489 750.817 788.342 753.031C789.195 755.217 789.622 757.524 789.622 759.951C789.622 762.351 789.182 764.657 788.302 766.871C787.449 769.057 786.089 770.857 784.222 772.271C782.382 773.684 780.035 774.391 777.182 774.391C774.355 774.391 771.995 773.684 770.102 772.271C768.235 770.857 766.862 769.057 765.982 766.871C765.129 764.657 764.702 762.351 764.702 759.951C764.702 757.524 765.129 755.217 765.982 753.031C766.862 750.817 768.235 749.004 770.102 747.591C771.995 746.151 774.355 745.431 777.182 745.431ZM819.556 770.191L826.516 745.911H828.756L820.956 773.911H817.396L810.556 749.711C810.423 749.257 810.33 748.671 810.276 747.951H809.796C809.743 748.671 809.65 749.257 809.516 749.711L802.676 773.911H799.116L791.316 745.911H793.556L800.476 770.151C800.61 770.631 800.743 771.204 800.876 771.871H801.236C801.37 771.204 801.503 770.631 801.636 770.151L808.476 745.911H811.596L818.436 770.191C818.57 770.724 818.703 771.284 818.836 771.871H819.196L819.556 770.191ZM852.003 756.791L858.563 745.911H860.963L852.003 760.951V773.911H849.763V760.911L840.843 745.911H843.243L849.763 756.791C850.11 757.404 850.403 758.031 850.643 758.671H851.123C851.363 758.031 851.656 757.404 852.003 756.791ZM874.291 772.351C876.611 772.351 878.531 771.751 880.051 770.551C881.598 769.324 882.718 767.764 883.411 765.871C884.131 763.977 884.491 762.004 884.491 759.951C884.491 757.871 884.131 755.884 883.411 753.991C882.718 752.097 881.598 750.537 880.051 749.311C878.531 748.084 876.611 747.471 874.291 747.471C871.971 747.471 870.038 748.084 868.491 749.311C866.971 750.511 865.851 752.071 865.131 753.991C864.411 755.884 864.051 757.871 864.051 759.951C864.051 762.004 864.411 763.977 865.131 765.871C865.851 767.764 866.971 769.324 868.491 770.551C870.038 771.751 871.971 772.351 874.291 772.351ZM874.291 745.431C877.145 745.431 879.505 746.151 881.371 747.591C883.238 749.004 884.598 750.817 885.451 753.031C886.305 755.217 886.731 757.524 886.731 759.951C886.731 762.351 886.291 764.657 885.411 766.871C884.558 769.057 883.198 770.857 881.331 772.271C879.491 773.684 877.145 774.391 874.291 774.391C871.465 774.391 869.105 773.684 867.211 772.271C865.345 770.857 863.971 769.057 863.091 766.871C862.238 764.657 861.811 762.351 861.811 759.951C861.811 757.524 862.238 755.217 863.091 753.031C863.971 750.817 865.345 749.004 867.211 747.591C869.105 746.151 871.465 745.431 874.291 745.431ZM909.971 762.591V745.911H912.211V762.591C912.211 764.404 911.864 766.217 911.171 768.031C910.504 769.817 909.384 771.324 907.811 772.551C906.264 773.777 904.251 774.391 901.771 774.391C899.317 774.391 897.304 773.777 895.731 772.551C894.184 771.297 893.064 769.777 892.371 767.991C891.704 766.177 891.371 764.377 891.371 762.591V745.911H893.611V762.591C893.611 764.217 893.891 765.777 894.451 767.271C895.037 768.764 895.944 769.991 897.171 770.951C898.397 771.884 899.931 772.351 901.771 772.351C903.637 772.351 905.184 771.884 906.411 770.951C907.637 769.991 908.531 768.764 909.091 767.271C909.677 765.777 909.971 764.217 909.971 762.591ZM946.304 762.031C947.317 763.071 947.824 764.471 947.824 766.231C947.824 767.644 947.477 768.964 946.784 770.191C946.091 771.417 944.984 772.431 943.464 773.231C941.944 774.004 940.037 774.391 937.744 774.391C935.424 774.391 933.504 773.977 931.984 773.151C930.491 772.324 929.384 771.271 928.664 769.991C927.971 768.684 927.624 767.324 927.624 765.911H929.864C929.864 766.977 930.131 768.004 930.664 768.991C931.224 769.977 932.104 770.791 933.304 771.431C934.504 772.044 935.984 772.351 937.744 772.351C939.531 772.351 941.011 772.057 942.184 771.471C943.357 770.884 944.211 770.137 944.744 769.231C945.304 768.297 945.584 767.297 945.584 766.231C945.584 765.111 945.251 764.191 944.584 763.471C943.917 762.751 943.077 762.191 942.064 761.791C941.077 761.364 939.891 761.004 938.504 760.711C938.104 760.631 937.677 760.551 937.224 760.471L936.584 760.351C934.957 760.057 933.571 759.697 932.424 759.271C931.277 758.817 930.291 758.111 929.464 757.151C928.637 756.164 928.224 754.831 928.224 753.151C928.224 751.844 928.557 750.617 929.224 749.471C929.891 748.297 930.944 747.337 932.384 746.591C933.824 745.817 935.651 745.431 937.864 745.431C940.077 745.431 941.917 745.817 943.384 746.591C944.851 747.337 945.917 748.297 946.584 749.471C947.251 750.644 947.584 751.871 947.584 753.151V753.551H945.344V753.151C945.344 752.191 945.077 751.284 944.544 750.431C944.037 749.551 943.224 748.844 942.104 748.311C940.984 747.751 939.571 747.471 937.864 747.471C936.184 747.471 934.784 747.751 933.664 748.311C932.571 748.844 931.757 749.551 931.224 750.431C930.717 751.284 930.464 752.191 930.464 753.151C930.464 754.324 930.757 755.271 931.344 755.991C931.957 756.684 932.691 757.191 933.544 757.511C934.397 757.804 935.477 758.071 936.784 758.311L937.424 758.431H937.504C939.584 758.804 941.317 759.244 942.704 759.751C944.117 760.231 945.317 760.991 946.304 762.031ZM969.467 747.951H954.827V758.871H968.147V760.831H954.827V771.871H969.467V773.911H952.587L952.627 745.911H969.467V747.951ZM991.498 747.951H976.858V758.871H990.178V760.831H976.858V771.871H991.498V773.911H974.618L974.658 745.911H991.498V747.951ZM1022.02 771.871L1032.02 745.911H1035.78V773.911H1033.54V752.511C1033.54 751.071 1033.66 749.551 1033.9 747.951H1033.42L1023.42 773.911H1020.1L1010.1 747.951H1009.62C1009.73 748.617 1009.81 749.364 1009.86 750.191C1009.94 750.991 1009.98 751.764 1009.98 752.511V773.911H1007.74V745.911H1011.5L1021.54 771.871H1022.02ZM1059 747.951H1044.36V758.871H1057.68V760.831H1044.36V771.871H1059V773.911H1042.12L1042.16 745.911H1059V747.951Z" fill="#1D1D1B"/>
<path d="M567.355 599.031L723.545 786.588H1064.49" stroke="#1D1D1B" stroke-width="1.36"/>
<path d="M686.749 112.526L723.545 73.4839H976.269" stroke="#1D1D1B" stroke-width="1.36"/>
</svg>
