<svg width="500" height="500" viewBox="0 0 500 500" fill="none" xmlns="http://www.w3.org/2000/svg">
<circle cx="250" cy="250" r="215" fill="#1A1A1A"/>
<path d="M277.849 251.84C285.196 259.573 288.869 269.917 288.869 282.87C288.869 293.117 286.259 302.88 281.04 312.16C275.819 321.247 267.603 328.787 256.389 334.78C245.176 340.58 231.063 343.48 214.049 343.48C197.036 343.48 182.923 340.483 171.709 334.49C160.496 328.303 152.279 320.473 147.059 311C141.839 301.333 139.229 291.377 139.229 281.13H163.009C163.009 287.897 164.749 294.373 168.229 300.56C171.903 306.747 177.606 311.87 185.339 315.93C193.073 319.99 202.739 322.02 214.339 322.02C225.939 322.02 235.509 320.183 243.049 316.51C250.589 312.643 256.099 307.713 259.579 301.72C263.253 295.727 265.089 289.443 265.089 282.87C265.089 275.717 262.866 269.917 258.419 265.47C253.973 260.83 248.366 257.253 241.599 254.74C235.026 252.227 227.099 250.1 217.819 248.36C214.919 247.78 212.019 247.2 209.119 246.62L204.479 245.75C192.686 243.43 182.439 240.53 173.739 237.05C165.039 233.57 157.596 228.157 151.409 220.81C145.416 213.463 142.419 203.603 142.419 191.23C142.419 181.563 144.933 172.38 149.959 163.68C155.179 154.98 163.203 147.827 174.029 142.22C184.856 136.42 198.486 133.52 214.919 133.52C231.353 133.52 244.983 136.42 255.809 142.22C266.829 147.827 274.853 154.98 279.88 163.68C285.1 172.38 287.71 181.563 287.71 191.23V193.55H263.93V191.23C263.93 185.237 262.189 179.533 258.709 174.12C255.229 168.513 249.816 163.97 242.47 160.49C235.316 156.817 226.133 154.98 214.919 154.98C203.899 154.98 194.716 156.817 187.369 160.49C180.216 163.97 174.899 168.513 171.419 174.12C167.939 179.533 166.199 185.237 166.199 191.23C166.199 198.383 168.036 204.183 171.709 208.63C175.576 213.077 180.313 216.46 185.919 218.78C191.526 220.907 198.679 222.743 207.379 224.29L212.599 225.16H213.179C228.259 227.867 241.019 231.057 251.459 234.73C261.899 238.21 270.696 243.913 277.849 251.84ZM339.83 343.48C335.77 343.48 332.194 342.127 329.1 339.42C326.2 336.52 324.75 333.04 324.75 328.98C324.75 324.92 326.2 321.537 329.1 318.83C332.194 315.93 335.77 314.48 339.83 314.48C342.344 314.48 344.664 315.157 346.79 316.51C349.11 317.863 350.947 319.603 352.3 321.73C353.847 323.857 354.62 326.273 354.62 328.98C354.62 333.04 353.074 336.52 349.98 339.42C347.08 342.127 343.697 343.48 339.83 343.48Z" fill="white"/>
</svg>
