<svg width="500" height="500" viewBox="0 0 500 500" fill="none" xmlns="http://www.w3.org/2000/svg">
<circle cx="250" cy="250" r="250" fill="#1A1A1A"/>
<path d="M297.223 253.4C307.357 264.067 312.423 278.333 312.423 296.2C312.423 310.333 308.823 323.8 301.623 336.6C294.423 349.133 283.09 359.533 267.623 367.8C252.157 375.8 232.69 379.8 209.223 379.8C185.757 379.8 166.29 375.667 150.823 367.4C135.357 358.867 124.023 348.067 116.823 335C109.623 321.667 106.023 307.933 106.023 293.8H138.823C138.823 303.133 141.223 312.067 146.023 320.6C151.09 329.133 158.957 336.2 169.623 341.8C180.29 347.4 193.623 350.2 209.623 350.2C225.623 350.2 238.823 347.667 249.223 342.6C259.623 337.267 267.223 330.467 272.023 322.2C277.09 313.933 279.623 305.267 279.623 296.2C279.623 286.333 276.557 278.333 270.423 272.2C264.29 265.8 256.557 260.867 247.223 257.4C238.157 253.933 227.223 251 214.423 248.6C210.423 247.8 206.423 247 202.423 246.2L196.023 245C179.757 241.8 165.623 237.8 153.623 233C141.623 228.2 131.357 220.733 122.823 210.6C114.557 200.467 110.423 186.867 110.423 169.8C110.423 156.467 113.89 143.8 120.823 131.8C128.023 119.8 139.09 109.933 154.023 102.2C168.957 94.2 187.757 90.2 210.423 90.2C233.09 90.2 251.89 94.2 266.823 102.2C282.023 109.933 293.09 119.8 300.023 131.8C307.223 143.8 310.823 156.467 310.823 169.8V173H278.023V169.8C278.023 161.533 275.623 153.667 270.823 146.2C266.023 138.467 258.557 132.2 248.423 127.4C238.557 122.333 225.89 119.8 210.423 119.8C195.223 119.8 182.557 122.333 172.423 127.4C162.557 132.2 155.223 138.467 150.423 146.2C145.623 153.667 143.223 161.533 143.223 169.8C143.223 179.667 145.757 187.667 150.823 193.8C156.157 199.933 162.69 204.6 170.423 207.8C178.157 210.733 188.023 213.267 200.023 215.4L207.223 216.6H208.023C228.823 220.333 246.423 224.733 260.823 229.8C275.223 234.6 287.357 242.467 297.223 253.4ZM382.714 379.8C377.114 379.8 372.181 377.933 367.914 374.2C363.914 370.2 361.914 365.4 361.914 359.8C361.914 354.2 363.914 349.533 367.914 345.8C372.181 341.8 377.114 339.8 382.714 339.8C386.181 339.8 389.381 340.733 392.314 342.6C395.514 344.467 398.047 346.867 399.914 349.8C402.047 352.733 403.114 356.067 403.114 359.8C403.114 365.4 400.981 370.2 396.714 374.2C392.714 377.933 388.047 379.8 382.714 379.8Z" fill="white"/>
</svg>
