<svg width="94" height="94" viewBox="0 0 94 94" fill="none" xmlns="http://www.w3.org/2000/svg">
<path d="M25.8489 0.863281H23.0308V3.68146H25.8489V0.863281Z" fill="black"/>
<path d="M31.4852 0.863281H28.667V3.68146H31.4852V0.863281Z" fill="black"/>
<path d="M34.3035 0.863281H31.4854V3.68146H34.3035V0.863281Z" fill="black"/>
<path d="M39.9398 0.863281H37.1216V3.68146H39.9398V0.863281Z" fill="black"/>
<path d="M48.3944 0.863281H45.5762V3.68146H48.3944V0.863281Z" fill="black"/>
<path d="M51.2127 0.863281H48.3945V3.68146H51.2127V0.863281Z" fill="black"/>
<path d="M54.0306 0.863281H51.2124V3.68146H54.0306V0.863281Z" fill="black"/>
<path d="M56.8489 0.863281H54.0308V3.68146H56.8489V0.863281Z" fill="black"/>
<path d="M59.6673 0.863281H56.8491V3.68146H59.6673V0.863281Z" fill="black"/>
<path d="M62.4852 0.863281H59.667V3.68146H62.4852V0.863281Z" fill="black"/>
<path d="M68.1219 0.863281H65.3037V3.68146H68.1219V0.863281Z" fill="black"/>
<path d="M25.8489 3.68164H23.0308V6.49982H25.8489V3.68164Z" fill="black"/>
<path d="M28.6673 3.68164H25.8491V6.49982H28.6673V3.68164Z" fill="black"/>
<path d="M39.9398 3.68164H37.1216V6.49982H39.9398V3.68164Z" fill="black"/>
<path d="M48.3944 3.68164H45.5762V6.49982H48.3944V3.68164Z" fill="black"/>
<path d="M54.0306 3.68164H51.2124V6.49982H54.0306V3.68164Z" fill="black"/>
<path d="M59.6668 3.68164H56.8486V6.49982H59.6668V3.68164Z" fill="black"/>
<path d="M65.3035 3.68164H62.4854V6.49982H65.3035V3.68164Z" fill="black"/>
<path d="M68.1219 3.68164H65.3037V6.49982H68.1219V3.68164Z" fill="black"/>
<path d="M28.6673 6.49902H25.8491V9.3172H28.6673V6.49902Z" fill="black"/>
<path d="M31.4852 6.49902H28.667V9.3172H31.4852V6.49902Z" fill="black"/>
<path d="M34.3035 6.49902H31.4854V9.3172H34.3035V6.49902Z" fill="black"/>
<path d="M48.3944 6.49902H45.5762V9.3172H48.3944V6.49902Z" fill="black"/>
<path d="M51.2127 6.49902H48.3945V9.3172H51.2127V6.49902Z" fill="black"/>
<path d="M56.8489 6.49902H54.0308V9.3172H56.8489V6.49902Z" fill="black"/>
<path d="M59.6668 6.49902H56.8486V9.3172H59.6668V6.49902Z" fill="black"/>
<path d="M65.3035 6.49902H62.4854V9.3172H65.3035V6.49902Z" fill="black"/>
<path d="M68.1219 6.49902H65.3037V9.3172H68.1219V6.49902Z" fill="black"/>
<path d="M25.8489 9.31738H23.0308V12.1356H25.8489V9.31738Z" fill="black"/>
<path d="M37.1219 9.31738H34.3037V12.1356H37.1219V9.31738Z" fill="black"/>
<path d="M42.7576 9.31738H39.9395V12.1356H42.7576V9.31738Z" fill="black"/>
<path d="M45.5765 9.31738H42.7583V12.1356H45.5765V9.31738Z" fill="black"/>
<path d="M48.3944 9.31738H45.5762V12.1356H48.3944V9.31738Z" fill="black"/>
<path d="M65.3035 9.31738H62.4854V12.1356H65.3035V9.31738Z" fill="black"/>
<path d="M42.7576 12.1357H39.9395V14.9539H42.7576V12.1357Z" fill="black"/>
<path d="M51.2127 12.1357H48.3945V14.9539H51.2127V12.1357Z" fill="black"/>
<path d="M59.6668 12.1357H56.8486V14.9539H59.6668V12.1357Z" fill="black"/>
<path d="M62.4852 12.1357H59.667V14.9539H62.4852V12.1357Z" fill="black"/>
<path d="M70.9398 12.1357H68.1216V14.9539H70.9398V12.1357Z" fill="black"/>
<path d="M28.6673 14.9541H25.8491V17.7723H28.6673V14.9541Z" fill="black"/>
<path d="M34.3035 14.9541H31.4854V17.7723H34.3035V14.9541Z" fill="black"/>
<path d="M37.1219 14.9541H34.3037V17.7723H37.1219V14.9541Z" fill="black"/>
<path d="M54.0306 14.9541H51.2124V17.7723H54.0306V14.9541Z" fill="black"/>
<path d="M56.8489 14.9541H54.0308V17.7723H56.8489V14.9541Z" fill="black"/>
<path d="M59.6668 14.9541H56.8486V17.7723H59.6668V14.9541Z" fill="black"/>
<path d="M25.8489 17.7725H23.0308V20.5906H25.8489V17.7725Z" fill="black"/>
<path d="M31.4852 17.7725H28.667V20.5906H31.4852V17.7725Z" fill="black"/>
<path d="M37.1219 17.7725H34.3037V20.5906H37.1219V17.7725Z" fill="black"/>
<path d="M42.7576 17.7725H39.9395V20.5906H42.7576V17.7725Z" fill="black"/>
<path d="M48.3944 17.7725H45.5762V20.5906H48.3944V17.7725Z" fill="black"/>
<path d="M54.0306 17.7725H51.2124V20.5906H54.0306V17.7725Z" fill="black"/>
<path d="M59.6668 17.7725H56.8486V20.5906H59.6668V17.7725Z" fill="black"/>
<path d="M65.3035 17.7725H62.4854V20.5906H65.3035V17.7725Z" fill="black"/>
<path d="M70.9398 17.7725H68.1216V20.5906H70.9398V17.7725Z" fill="black"/>
<path d="M25.8489 20.5898H23.0308V23.408H25.8489V20.5898Z" fill="black"/>
<path d="M28.6673 20.5898H25.8491V23.408H28.6673V20.5898Z" fill="black"/>
<path d="M34.3035 20.5898H31.4854V23.408H34.3035V20.5898Z" fill="black"/>
<path d="M37.1219 20.5898H34.3037V23.408H37.1219V20.5898Z" fill="black"/>
<path d="M42.7576 20.5898H39.9395V23.408H42.7576V20.5898Z" fill="black"/>
<path d="M51.2127 20.5898H48.3945V23.408H51.2127V20.5898Z" fill="black"/>
<path d="M54.0306 20.5898H51.2124V23.408H54.0306V20.5898Z" fill="black"/>
<path d="M56.8489 20.5898H54.0308V23.408H56.8489V20.5898Z" fill="black"/>
<path d="M65.3035 20.5898H62.4854V23.408H65.3035V20.5898Z" fill="black"/>
<path d="M68.1219 20.5898H65.3037V23.408H68.1219V20.5898Z" fill="black"/>
<path d="M70.9398 20.5898H68.1216V23.408H70.9398V20.5898Z" fill="black"/>
<path d="M3.30353 23.4092H0.485352V26.2274H3.30353V23.4092Z" fill="black"/>
<path d="M8.93976 23.4092H6.12158V26.2274H8.93976V23.4092Z" fill="black"/>
<path d="M11.7581 23.4092H8.93994V26.2274H11.7581V23.4092Z" fill="black"/>
<path d="M17.3944 23.4092H14.5762V26.2274H17.3944V23.4092Z" fill="black"/>
<path d="M20.2127 23.4092H17.3945V26.2274H20.2127V23.4092Z" fill="black"/>
<path d="M23.0311 23.4092H20.2129V26.2274H23.0311V23.4092Z" fill="black"/>
<path d="M31.4852 23.4092H28.667V26.2274H31.4852V23.4092Z" fill="black"/>
<path d="M37.1219 23.4092H34.3037V26.2274H37.1219V23.4092Z" fill="black"/>
<path d="M48.3944 23.4092H45.5762V26.2274H48.3944V23.4092Z" fill="black"/>
<path d="M51.2127 23.4092H48.3945V26.2274H51.2127V23.4092Z" fill="black"/>
<path d="M54.0306 23.4092H51.2124V26.2274H54.0306V23.4092Z" fill="black"/>
<path d="M62.4852 23.4092H59.667V26.2274H62.4852V23.4092Z" fill="black"/>
<path d="M70.9398 23.4092H68.1216V26.2274H70.9398V23.4092Z" fill="black"/>
<path d="M76.576 23.4092H73.7578V26.2274H76.576V23.4092Z" fill="black"/>
<path d="M85.0306 23.4092H82.2124V26.2274H85.0306V23.4092Z" fill="black"/>
<path d="M90.6673 23.4092H87.8491V26.2274H90.6673V23.4092Z" fill="black"/>
<path d="M93.4852 23.4092H90.667V26.2274H93.4852V23.4092Z" fill="black"/>
<path d="M8.93976 26.2275H6.12158V29.0457H8.93976V26.2275Z" fill="black"/>
<path d="M11.7581 26.2275H8.93994V29.0457H11.7581V26.2275Z" fill="black"/>
<path d="M14.576 26.2275H11.7578V29.0457H14.576V26.2275Z" fill="black"/>
<path d="M17.3944 26.2275H14.5762V29.0457H17.3944V26.2275Z" fill="black"/>
<path d="M34.3035 26.2275H31.4854V29.0457H34.3035V26.2275Z" fill="black"/>
<path d="M48.3944 26.2275H45.5762V29.0457H48.3944V26.2275Z" fill="black"/>
<path d="M56.8489 26.2275H54.0308V29.0457H56.8489V26.2275Z" fill="black"/>
<path d="M59.6668 26.2275H56.8486V29.0457H59.6668V26.2275Z" fill="black"/>
<path d="M68.1219 26.2275H65.3037V29.0457H68.1219V26.2275Z" fill="black"/>
<path d="M76.576 26.2275H73.7578V29.0457H76.576V26.2275Z" fill="black"/>
<path d="M79.3944 26.2275H76.5762V29.0457H79.3944V26.2275Z" fill="black"/>
<path d="M85.0306 26.2275H82.2124V29.0457H85.0306V26.2275Z" fill="black"/>
<path d="M87.8489 26.2275H85.0308V29.0457H87.8489V26.2275Z" fill="black"/>
<path d="M90.6673 26.2275H87.8491V29.0457H90.6673V26.2275Z" fill="black"/>
<path d="M93.4852 26.2275H90.667V29.0457H93.4852V26.2275Z" fill="black"/>
<path d="M6.12189 29.0449H3.30371V31.8631H6.12189V29.0449Z" fill="black"/>
<path d="M14.576 29.0449H11.7578V31.8631H14.576V29.0449Z" fill="black"/>
<path d="M17.3944 29.0449H14.5762V31.8631H17.3944V29.0449Z" fill="black"/>
<path d="M20.2127 29.0449H17.3945V31.8631H20.2127V29.0449Z" fill="black"/>
<path d="M28.6668 29.0449H25.8486V31.8631H28.6668V29.0449Z" fill="black"/>
<path d="M31.4852 29.0449H28.667V31.8631H31.4852V29.0449Z" fill="black"/>
<path d="M37.1219 29.0449H34.3037V31.8631H37.1219V29.0449Z" fill="black"/>
<path d="M42.7576 29.0449H39.9395V31.8631H42.7576V29.0449Z" fill="black"/>
<path d="M51.2127 29.0449H48.3945V31.8631H51.2127V29.0449Z" fill="black"/>
<path d="M62.4852 29.0449H59.667V31.8631H62.4852V29.0449Z" fill="black"/>
<path d="M65.3035 29.0449H62.4854V31.8631H65.3035V29.0449Z" fill="black"/>
<path d="M68.1219 29.0449H65.3037V31.8631H68.1219V29.0449Z" fill="black"/>
<path d="M70.9403 29.0449H68.1221V31.8631H70.9403V29.0449Z" fill="black"/>
<path d="M79.3944 29.0449H76.5762V31.8631H79.3944V29.0449Z" fill="black"/>
<path d="M82.2127 29.0449H79.3945V31.8631H82.2127V29.0449Z" fill="black"/>
<path d="M85.0306 29.0449H82.2124V31.8631H85.0306V29.0449Z" fill="black"/>
<path d="M90.3035 28.8633H87.4854V31.6815H90.3035V28.8633Z" fill="black"/>
<path d="M93.4852 29.0449H90.667V31.8631H93.4852V29.0449Z" fill="black"/>
<path d="M6.1214 31.8633H3.30322V34.6815H6.1214V31.8633Z" fill="black"/>
<path d="M11.7581 31.8633H8.93994V34.6815H11.7581V31.8633Z" fill="black"/>
<path d="M25.8489 31.8633H23.0308V34.6815H25.8489V31.8633Z" fill="black"/>
<path d="M34.3035 31.8633H31.4854V34.6815H34.3035V31.8633Z" fill="black"/>
<path d="M37.1219 31.8633H34.3037V34.6815H37.1219V31.8633Z" fill="black"/>
<path d="M39.9398 31.8633H37.1216V34.6815H39.9398V31.8633Z" fill="black"/>
<path d="M42.7576 31.8633H39.9395V34.6815H42.7576V31.8633Z" fill="black"/>
<path d="M54.0306 31.8633H51.2124V34.6815H54.0306V31.8633Z" fill="black"/>
<path d="M56.8489 31.8633H54.0308V34.6815H56.8489V31.8633Z" fill="black"/>
<path d="M59.6668 31.8633H56.8486V34.6815H59.6668V31.8633Z" fill="black"/>
<path d="M68.1219 31.8633H65.3037V34.6815H68.1219V31.8633Z" fill="black"/>
<path d="M70.9398 31.8633H68.1216V34.6815H70.9398V31.8633Z" fill="black"/>
<path d="M79.3944 31.8633H76.5762V34.6815H79.3944V31.8633Z" fill="black"/>
<path d="M85.0306 31.8633H82.2124V34.6815H85.0306V31.8633Z" fill="black"/>
<path d="M3.30353 34.6816H0.485352V37.4998H3.30353V34.6816Z" fill="black"/>
<path d="M6.1214 34.6816H3.30322V37.4998H6.1214V34.6816Z" fill="black"/>
<path d="M8.93976 34.6816H6.12158V37.4998H8.93976V34.6816Z" fill="black"/>
<path d="M20.2127 34.6816H17.3945V37.4998H20.2127V34.6816Z" fill="black"/>
<path d="M23.0311 34.6816H20.2129V37.4998H23.0311V34.6816Z" fill="black"/>
<path d="M25.8489 34.6816H23.0308V37.4998H25.8489V34.6816Z" fill="black"/>
<path d="M54.0306 34.6816H51.2124V37.4998H54.0306V34.6816Z" fill="black"/>
<path d="M56.8489 34.6816H54.0308V37.4998H56.8489V34.6816Z" fill="black"/>
<path d="M68.1219 34.6816H65.3037V37.4998H68.1219V34.6816Z" fill="black"/>
<path d="M73.7581 34.6816H70.9399V37.4998H73.7581V34.6816Z" fill="black"/>
<path d="M79.3944 34.6816H76.5762V37.4998H79.3944V34.6816Z" fill="black"/>
<path d="M82.2127 34.6816H79.3945V37.4998H82.2127V34.6816Z" fill="black"/>
<path d="M85.0306 34.6816H82.2124V37.4998H85.0306V34.6816Z" fill="black"/>
<path d="M93.4852 34.6816H90.667V37.4998H93.4852V34.6816Z" fill="black"/>
<path d="M8.93976 37.5H6.12158V40.3182H8.93976V37.5Z" fill="black"/>
<path d="M17.3944 37.5H14.5762V40.3182H17.3944V37.5Z" fill="black"/>
<path d="M23.0311 37.5H20.2129V40.3182H23.0311V37.5Z" fill="black"/>
<path d="M25.8489 37.5H23.0308V40.3182H25.8489V37.5Z" fill="black"/>
<path d="M28.6673 37.5H25.8491V40.3182H28.6673V37.5Z" fill="black"/>
<path d="M31.4852 37.5H28.667V40.3182H31.4852V37.5Z" fill="black"/>
<path d="M34.3035 37.5H31.4854V40.3182H34.3035V37.5Z" fill="black"/>
<path d="M39.9398 37.5H37.1216V40.3182H39.9398V37.5Z" fill="black"/>
<path d="M48.3944 37.5H45.5762V40.3182H48.3944V37.5Z" fill="black"/>
<path d="M51.2127 37.5H48.3945V40.3182H51.2127V37.5Z" fill="black"/>
<path d="M54.0306 37.5H51.2124V40.3182H54.0306V37.5Z" fill="black"/>
<path d="M56.8489 37.5H54.0308V40.3182H56.8489V37.5Z" fill="black"/>
<path d="M59.6668 37.5H56.8486V40.3182H59.6668V37.5Z" fill="black"/>
<path d="M70.9398 37.5H68.1216V40.3182H70.9398V37.5Z" fill="black"/>
<path d="M79.3944 37.5H76.5762V40.3182H79.3944V37.5Z" fill="black"/>
<path d="M90.6673 37.5H87.8491V40.3182H90.6673V37.5Z" fill="black"/>
<path d="M6.1214 40.3184H3.30322V43.1365H6.1214V40.3184Z" fill="black"/>
<path d="M8.93976 40.3184H6.12158V43.1365H8.93976V40.3184Z" fill="black"/>
<path d="M17.3944 40.3184H14.5762V43.1365H17.3944V40.3184Z" fill="black"/>
<path d="M20.2127 40.3184H17.3945V43.1365H20.2127V40.3184Z" fill="black"/>
<path d="M23.0311 40.3184H20.2129V43.1365H23.0311V40.3184Z" fill="black"/>
<path d="M28.6673 40.3184H25.8491V43.1365H28.6673V40.3184Z" fill="black"/>
<path d="M31.4852 40.3184H28.667V43.1365H31.4852V40.3184Z" fill="black"/>
<path d="M34.3035 40.3184H31.4854V43.1365H34.3035V40.3184Z" fill="black"/>
<path d="M37.1219 40.3184H34.3037V43.1365H37.1219V40.3184Z" fill="black"/>
<path d="M45.5765 40.3184H42.7583V43.1365H45.5765V40.3184Z" fill="black"/>
<path d="M48.3944 40.3184H45.5762V43.1365H48.3944V40.3184Z" fill="black"/>
<path d="M51.2127 40.3184H48.3945V43.1365H51.2127V40.3184Z" fill="black"/>
<path d="M56.8489 40.3184H54.0308V43.1365H56.8489V40.3184Z" fill="black"/>
<path d="M59.6668 40.3184H56.8486V43.1365H59.6668V40.3184Z" fill="black"/>
<path d="M65.3035 40.3184H62.4854V43.1365H65.3035V40.3184Z" fill="black"/>
<path d="M70.9398 40.3184H68.1216V43.1365H70.9398V40.3184Z" fill="black"/>
<path d="M76.576 40.3184H73.7578V43.1365H76.576V40.3184Z" fill="black"/>
<path d="M3.30353 43.1357H0.485352V45.9539H3.30353V43.1357Z" fill="black"/>
<path d="M11.7581 43.1357H8.93994V45.9539H11.7581V43.1357Z" fill="black"/>
<path d="M17.3944 43.1357H14.5762V45.9539H17.3944V43.1357Z" fill="black"/>
<path d="M23.0311 43.1357H20.2129V45.9539H23.0311V43.1357Z" fill="black"/>
<path d="M25.8489 43.1357H23.0308V45.9539H25.8489V43.1357Z" fill="black"/>
<path d="M34.3035 43.1357H31.4854V45.9539H34.3035V43.1357Z" fill="black"/>
<path d="M42.7576 43.1357H39.9395V45.9539H42.7576V43.1357Z" fill="black"/>
<path d="M48.3944 43.1357H45.5762V45.9539H48.3944V43.1357Z" fill="black"/>
<path d="M59.6668 43.1357H56.8486V45.9539H59.6668V43.1357Z" fill="black"/>
<path d="M62.4852 43.1357H59.667V45.9539H62.4852V43.1357Z" fill="black"/>
<path d="M65.3035 43.1357H62.4854V45.9539H65.3035V43.1357Z" fill="black"/>
<path d="M68.1219 43.1357H65.3037V45.9539H68.1219V43.1357Z" fill="black"/>
<path d="M73.7581 43.1357H70.9399V45.9539H73.7581V43.1357Z" fill="black"/>
<path d="M76.576 43.1357H73.7578V45.9539H76.576V43.1357Z" fill="black"/>
<path d="M82.2127 43.1357H79.3945V45.9539H82.2127V43.1357Z" fill="black"/>
<path d="M85.0306 43.1357H82.2124V45.9539H85.0306V43.1357Z" fill="black"/>
<path d="M87.8489 43.1357H85.0308V45.9539H87.8489V43.1357Z" fill="black"/>
<path d="M3.30353 45.9541H0.485352V48.7723H3.30353V45.9541Z" fill="black"/>
<path d="M14.576 45.9541H11.7578V48.7723H14.576V45.9541Z" fill="black"/>
<path d="M20.2127 45.9541H17.3945V48.7723H20.2127V45.9541Z" fill="black"/>
<path d="M25.8489 45.9541H23.0308V48.7723H25.8489V45.9541Z" fill="black"/>
<path d="M28.6673 45.9541H25.8491V48.7723H28.6673V45.9541Z" fill="black"/>
<path d="M31.4852 45.9541H28.667V48.7723H31.4852V45.9541Z" fill="black"/>
<path d="M34.3035 45.9541H31.4854V48.7723H34.3035V45.9541Z" fill="black"/>
<path d="M37.1219 45.9541H34.3037V48.7723H37.1219V45.9541Z" fill="black"/>
<path d="M45.5765 45.9541H42.7583V48.7723H45.5765V45.9541Z" fill="black"/>
<path d="M54.0306 45.9541H51.2124V48.7723H54.0306V45.9541Z" fill="black"/>
<path d="M59.6668 45.9541H56.8486V48.7723H59.6668V45.9541Z" fill="black"/>
<path d="M62.4852 45.9541H59.667V48.7723H62.4852V45.9541Z" fill="black"/>
<path d="M65.3035 45.9541H62.4854V48.7723H65.3035V45.9541Z" fill="black"/>
<path d="M73.7581 45.9541H70.9399V48.7723H73.7581V45.9541Z" fill="black"/>
<path d="M76.576 45.9541H73.7578V48.7723H76.576V45.9541Z" fill="black"/>
<path d="M82.2127 45.9541H79.3945V48.7723H82.2127V45.9541Z" fill="black"/>
<path d="M85.0306 45.9541H82.2124V48.7723H85.0306V45.9541Z" fill="black"/>
<path d="M87.8489 45.9541H85.0308V48.7723H87.8489V45.9541Z" fill="black"/>
<path d="M6.1214 48.7725H3.30322V51.5906H6.1214V48.7725Z" fill="black"/>
<path d="M11.7581 48.7725H8.93994V51.5906H11.7581V48.7725Z" fill="black"/>
<path d="M14.576 48.7725H11.7578V51.5906H14.576V48.7725Z" fill="black"/>
<path d="M17.3944 48.7725H14.5762V51.5906H17.3944V48.7725Z" fill="black"/>
<path d="M25.8489 48.7725H23.0308V51.5906H25.8489V48.7725Z" fill="black"/>
<path d="M31.4852 48.7725H28.667V51.5906H31.4852V48.7725Z" fill="black"/>
<path d="M37.1219 48.7725H34.3037V51.5906H37.1219V48.7725Z" fill="black"/>
<path d="M42.7576 48.7725H39.9395V51.5906H42.7576V48.7725Z" fill="black"/>
<path d="M45.5765 48.7725H42.7583V51.5906H45.5765V48.7725Z" fill="black"/>
<path d="M51.2127 48.7725H48.3945V51.5906H51.2127V48.7725Z" fill="black"/>
<path d="M62.4852 48.7725H59.667V51.5906H62.4852V48.7725Z" fill="black"/>
<path d="M68.1219 48.7725H65.3037V51.5906H68.1219V48.7725Z" fill="black"/>
<path d="M70.9398 48.7725H68.1216V51.5906H70.9398V48.7725Z" fill="black"/>
<path d="M73.7581 48.7725H70.9399V51.5906H73.7581V48.7725Z" fill="black"/>
<path d="M76.576 48.7725H73.7578V51.5906H76.576V48.7725Z" fill="black"/>
<path d="M82.2127 48.7725H79.3945V51.5906H82.2127V48.7725Z" fill="black"/>
<path d="M85.0306 48.7725H82.2124V51.5906H85.0306V48.7725Z" fill="black"/>
<path d="M90.6673 48.7725H87.8491V51.5906H90.6673V48.7725Z" fill="black"/>
<path d="M93.4852 48.7725H90.667V51.5906H93.4852V48.7725Z" fill="black"/>
<path d="M6.1214 51.5908H3.30322V54.409H6.1214V51.5908Z" fill="black"/>
<path d="M8.93976 51.5908H6.12158V54.409H8.93976V51.5908Z" fill="black"/>
<path d="M11.7581 51.5908H8.93994V54.409H11.7581V51.5908Z" fill="black"/>
<path d="M14.576 51.5908H11.7578V54.409H14.576V51.5908Z" fill="black"/>
<path d="M17.3944 51.5908H14.5762V54.409H17.3944V51.5908Z" fill="black"/>
<path d="M20.2127 51.5908H17.3945V54.409H20.2127V51.5908Z" fill="black"/>
<path d="M25.8489 51.5908H23.0308V54.409H25.8489V51.5908Z" fill="black"/>
<path d="M34.3035 51.5908H31.4854V54.409H34.3035V51.5908Z" fill="black"/>
<path d="M39.9398 51.5908H37.1216V54.409H39.9398V51.5908Z" fill="black"/>
<path d="M42.7576 51.5908H39.9395V54.409H42.7576V51.5908Z" fill="black"/>
<path d="M45.5765 51.5908H42.7583V54.409H45.5765V51.5908Z" fill="black"/>
<path d="M48.3944 51.5908H45.5762V54.409H48.3944V51.5908Z" fill="black"/>
<path d="M51.2127 51.5908H48.3945V54.409H51.2127V51.5908Z" fill="black"/>
<path d="M62.4852 51.5908H59.667V54.409H62.4852V51.5908Z" fill="black"/>
<path d="M65.3035 51.5908H62.4854V54.409H65.3035V51.5908Z" fill="black"/>
<path d="M70.9398 51.5908H68.1216V54.409H70.9398V51.5908Z" fill="black"/>
<path d="M73.7581 51.5908H70.9399V54.409H73.7581V51.5908Z" fill="black"/>
<path d="M76.576 51.5908H73.7578V54.409H76.576V51.5908Z" fill="black"/>
<path d="M79.3944 51.5908H76.5762V54.409H79.3944V51.5908Z" fill="black"/>
<path d="M82.2127 51.5908H79.3945V54.409H82.2127V51.5908Z" fill="black"/>
<path d="M87.8489 51.5908H85.0308V54.409H87.8489V51.5908Z" fill="black"/>
<path d="M90.6673 51.5908H87.8491V54.409H90.6673V51.5908Z" fill="black"/>
<path d="M23.0311 54.4082H20.2129V57.2264H23.0311V54.4082Z" fill="black"/>
<path d="M34.3035 54.4082H31.4854V57.2264H34.3035V54.4082Z" fill="black"/>
<path d="M37.1219 54.4082H34.3037V57.2264H37.1219V54.4082Z" fill="black"/>
<path d="M39.9398 54.4082H37.1216V57.2264H39.9398V54.4082Z" fill="black"/>
<path d="M48.3944 54.4082H45.5762V57.2264H48.3944V54.4082Z" fill="black"/>
<path d="M56.8489 54.4082H54.0308V57.2264H56.8489V54.4082Z" fill="black"/>
<path d="M65.3035 54.4082H62.4854V57.2264H65.3035V54.4082Z" fill="black"/>
<path d="M70.9398 54.4082H68.1216V57.2264H70.9398V54.4082Z" fill="black"/>
<path d="M73.7581 54.4082H70.9399V57.2264H73.7581V54.4082Z" fill="black"/>
<path d="M82.2127 54.4082H79.3945V57.2264H82.2127V54.4082Z" fill="black"/>
<path d="M90.6673 54.4082H87.8491V57.2264H90.6673V54.4082Z" fill="black"/>
<path d="M3.30353 57.2266H0.485352V60.0447H3.30353V57.2266Z" fill="black"/>
<path d="M6.1214 57.2266H3.30322V60.0447H6.1214V57.2266Z" fill="black"/>
<path d="M20.2127 57.2266H17.3945V60.0447H20.2127V57.2266Z" fill="black"/>
<path d="M25.8489 57.2266H23.0308V60.0447H25.8489V57.2266Z" fill="black"/>
<path d="M31.4852 57.2266H28.667V60.0447H31.4852V57.2266Z" fill="black"/>
<path d="M45.5765 57.2266H42.7583V60.0447H45.5765V57.2266Z" fill="black"/>
<path d="M54.0306 57.2266H51.2124V60.0447H54.0306V57.2266Z" fill="black"/>
<path d="M62.4852 57.2266H59.667V60.0447H62.4852V57.2266Z" fill="black"/>
<path d="M73.7581 57.2266H70.9399V60.0447H73.7581V57.2266Z" fill="black"/>
<path d="M85.0306 57.2266H82.2124V60.0447H85.0306V57.2266Z" fill="black"/>
<path d="M87.8489 57.2266H85.0308V60.0447H87.8489V57.2266Z" fill="black"/>
<path d="M3.30353 60.0449H0.485352V62.8631H3.30353V60.0449Z" fill="black"/>
<path d="M6.1214 60.0449H3.30322V62.8631H6.1214V60.0449Z" fill="black"/>
<path d="M8.93976 60.0449H6.12158V62.8631H8.93976V60.0449Z" fill="black"/>
<path d="M11.7581 60.0449H8.93994V62.8631H11.7581V60.0449Z" fill="black"/>
<path d="M17.3944 60.0449H14.5762V62.8631H17.3944V60.0449Z" fill="black"/>
<path d="M23.0311 60.0449H20.2129V62.8631H23.0311V60.0449Z" fill="black"/>
<path d="M42.7576 60.0449H39.9395V62.8631H42.7576V60.0449Z" fill="black"/>
<path d="M45.5765 60.0449H42.7583V62.8631H45.5765V60.0449Z" fill="black"/>
<path d="M51.2127 60.0449H48.3945V62.8631H51.2127V60.0449Z" fill="black"/>
<path d="M54.0306 60.0449H51.2124V62.8631H54.0306V60.0449Z" fill="black"/>
<path d="M56.8489 60.0449H54.0308V62.8631H56.8489V60.0449Z" fill="black"/>
<path d="M59.6668 60.0449H56.8486V62.8631H59.6668V60.0449Z" fill="black"/>
<path d="M62.4852 60.0449H59.667V62.8631H62.4852V60.0449Z" fill="black"/>
<path d="M65.3035 60.0449H62.4854V62.8631H65.3035V60.0449Z" fill="black"/>
<path d="M68.1219 60.0449H65.3037V62.8631H68.1219V60.0449Z" fill="black"/>
<path d="M76.576 60.0449H73.7578V62.8631H76.576V60.0449Z" fill="black"/>
<path d="M79.3944 60.0449H76.5762V62.8631H79.3944V60.0449Z" fill="black"/>
<path d="M93.4852 60.0449H90.667V62.8631H93.4852V60.0449Z" fill="black"/>
<path d="M14.576 62.8633H11.7578V65.6815H14.576V62.8633Z" fill="black"/>
<path d="M17.3944 62.8633H14.5762V65.6815H17.3944V62.8633Z" fill="black"/>
<path d="M20.2127 62.8633H17.3945V65.6815H20.2127V62.8633Z" fill="black"/>
<path d="M25.8489 62.8633H23.0308V65.6815H25.8489V62.8633Z" fill="black"/>
<path d="M28.6673 62.8633H25.8491V65.6815H28.6673V62.8633Z" fill="black"/>
<path d="M37.1219 62.8633H34.3037V65.6815H37.1219V62.8633Z" fill="black"/>
<path d="M42.7576 62.8633H39.9395V65.6815H42.7576V62.8633Z" fill="black"/>
<path d="M48.3944 62.8633H45.5762V65.6815H48.3944V62.8633Z" fill="black"/>
<path d="M51.2127 62.8633H48.3945V65.6815H51.2127V62.8633Z" fill="black"/>
<path d="M59.6668 62.8633H56.8486V65.6815H59.6668V62.8633Z" fill="black"/>
<path d="M65.3035 62.8633H62.4854V65.6815H65.3035V62.8633Z" fill="black"/>
<path d="M68.1219 62.8633H65.3037V65.6815H68.1219V62.8633Z" fill="black"/>
<path d="M70.9398 62.8633H68.1216V65.6815H70.9398V62.8633Z" fill="black"/>
<path d="M82.2127 62.8633H79.3945V65.6815H82.2127V62.8633Z" fill="black"/>
<path d="M85.0306 62.8633H82.2124V65.6815H85.0306V62.8633Z" fill="black"/>
<path d="M90.6673 62.8633H87.8491V65.6815H90.6673V62.8633Z" fill="black"/>
<path d="M93.4852 62.8633H90.667V65.6815H93.4852V62.8633Z" fill="black"/>
<path d="M6.1214 65.6807H3.30322V68.4988H6.1214V65.6807Z" fill="black"/>
<path d="M8.93976 65.6807H6.12158V68.4988H8.93976V65.6807Z" fill="black"/>
<path d="M23.0311 65.6807H20.2129V68.4988H23.0311V65.6807Z" fill="black"/>
<path d="M34.3035 65.6807H31.4854V68.4988H34.3035V65.6807Z" fill="black"/>
<path d="M37.1219 65.6807H34.3037V68.4988H37.1219V65.6807Z" fill="black"/>
<path d="M48.3944 65.6807H45.5762V68.4988H48.3944V65.6807Z" fill="black"/>
<path d="M54.0306 65.6807H51.2124V68.4988H54.0306V65.6807Z" fill="black"/>
<path d="M56.8489 65.6807H54.0308V68.4988H56.8489V65.6807Z" fill="black"/>
<path d="M59.6668 65.6807H56.8486V68.4988H59.6668V65.6807Z" fill="black"/>
<path d="M65.3035 65.6807H62.4854V68.4988H65.3035V65.6807Z" fill="black"/>
<path d="M68.1219 65.6807H65.3037V68.4988H68.1219V65.6807Z" fill="black"/>
<path d="M82.2127 65.6807H79.3945V68.4988H82.2127V65.6807Z" fill="black"/>
<path d="M85.0306 65.6807H82.2124V68.4988H85.0306V65.6807Z" fill="black"/>
<path d="M90.6673 65.6807H87.8491V68.4988H90.6673V65.6807Z" fill="black"/>
<path d="M3.30353 68.5H0.485352V71.3182H3.30353V68.5Z" fill="black"/>
<path d="M14.576 68.5H11.7578V71.3182H14.576V68.5Z" fill="black"/>
<path d="M17.3944 68.5H14.5762V71.3182H17.3944V68.5Z" fill="black"/>
<path d="M20.2127 68.5H17.3945V71.3182H20.2127V68.5Z" fill="black"/>
<path d="M23.0311 68.5H20.2129V71.3182H23.0311V68.5Z" fill="black"/>
<path d="M25.8489 68.5H23.0308V71.3182H25.8489V68.5Z" fill="black"/>
<path d="M37.1219 68.5H34.3037V71.3182H37.1219V68.5Z" fill="black"/>
<path d="M42.7576 68.5H39.9395V71.3182H42.7576V68.5Z" fill="black"/>
<path d="M45.5765 68.5H42.7583V71.3182H45.5765V68.5Z" fill="black"/>
<path d="M51.2127 68.5H48.3945V71.3182H51.2127V68.5Z" fill="black"/>
<path d="M56.8489 68.5H54.0308V71.3182H56.8489V68.5Z" fill="black"/>
<path d="M65.3035 68.5H62.4854V71.3182H65.3035V68.5Z" fill="black"/>
<path d="M70.9398 68.5H68.1216V71.3182H70.9398V68.5Z" fill="black"/>
<path d="M73.7581 68.5H70.9399V71.3182H73.7581V68.5Z" fill="black"/>
<path d="M76.576 68.5H73.7578V71.3182H76.576V68.5Z" fill="black"/>
<path d="M79.3944 68.5H76.5762V71.3182H79.3944V68.5Z" fill="black"/>
<path d="M82.2127 68.5H79.3945V71.3182H82.2127V68.5Z" fill="black"/>
<path d="M85.0306 68.5H82.2124V71.3182H85.0306V68.5Z" fill="black"/>
<path d="M90.6673 68.5H87.8491V71.3182H90.6673V68.5Z" fill="black"/>
<path d="M25.8489 71.3184H23.0308V74.1365H25.8489V71.3184Z" fill="black"/>
<path d="M28.6673 71.3184H25.8491V74.1365H28.6673V71.3184Z" fill="black"/>
<path d="M37.1219 71.3184H34.3037V74.1365H37.1219V71.3184Z" fill="black"/>
<path d="M45.5765 71.3184H42.7583V74.1365H45.5765V71.3184Z" fill="black"/>
<path d="M51.2127 71.3184H48.3945V74.1365H51.2127V71.3184Z" fill="black"/>
<path d="M56.8489 71.3184H54.0308V74.1365H56.8489V71.3184Z" fill="black"/>
<path d="M68.1219 71.3184H65.3037V74.1365H68.1219V71.3184Z" fill="black"/>
<path d="M70.9398 71.3184H68.1216V74.1365H70.9398V71.3184Z" fill="black"/>
<path d="M82.2127 71.3184H79.3945V74.1365H82.2127V71.3184Z" fill="black"/>
<path d="M85.0306 71.3184H82.2124V74.1365H85.0306V71.3184Z" fill="black"/>
<path d="M25.8489 74.1357H23.0308V76.9539H25.8489V74.1357Z" fill="black"/>
<path d="M31.4852 74.1357H28.667V76.9539H31.4852V74.1357Z" fill="black"/>
<path d="M48.3944 74.1357H45.5762V76.9539H48.3944V74.1357Z" fill="black"/>
<path d="M56.8489 74.1357H54.0308V76.9539H56.8489V74.1357Z" fill="black"/>
<path d="M59.6668 74.1357H56.8486V76.9539H59.6668V74.1357Z" fill="black"/>
<path d="M62.4852 74.1357H59.667V76.9539H62.4852V74.1357Z" fill="black"/>
<path d="M65.3035 74.1357H62.4854V76.9539H65.3035V74.1357Z" fill="black"/>
<path d="M68.1219 74.1357H65.3037V76.9539H68.1219V74.1357Z" fill="black"/>
<path d="M70.9398 74.1357H68.1216V76.9539H70.9398V74.1357Z" fill="black"/>
<path d="M76.576 74.1357H73.7578V76.9539H76.576V74.1357Z" fill="black"/>
<path d="M82.2127 74.1357H79.3945V76.9539H82.2127V74.1357Z" fill="black"/>
<path d="M25.8489 76.9541H23.0308V79.7723H25.8489V76.9541Z" fill="black"/>
<path d="M28.6673 76.9541H25.8491V79.7723H28.6673V76.9541Z" fill="black"/>
<path d="M31.4852 76.9541H28.667V79.7723H31.4852V76.9541Z" fill="black"/>
<path d="M37.1219 76.9541H34.3037V79.7723H37.1219V76.9541Z" fill="black"/>
<path d="M39.9398 76.9541H37.1216V79.7723H39.9398V76.9541Z" fill="black"/>
<path d="M48.3944 76.9541H45.5762V79.7723H48.3944V76.9541Z" fill="black"/>
<path d="M56.8489 76.9541H54.0308V79.7723H56.8489V76.9541Z" fill="black"/>
<path d="M59.6668 76.9541H56.8486V79.7723H59.6668V76.9541Z" fill="black"/>
<path d="M62.4852 76.9541H59.667V79.7723H62.4852V76.9541Z" fill="black"/>
<path d="M65.3035 76.9541H62.4854V79.7723H65.3035V76.9541Z" fill="black"/>
<path d="M68.1219 76.9541H65.3037V79.7723H68.1219V76.9541Z" fill="black"/>
<path d="M70.9398 76.9541H68.1216V79.7723H70.9398V76.9541Z" fill="black"/>
<path d="M82.2127 76.9541H79.3945V79.7723H82.2127V76.9541Z" fill="black"/>
<path d="M85.0306 76.9541H82.2124V79.7723H85.0306V76.9541Z" fill="black"/>
<path d="M87.8489 76.9541H85.0308V79.7723H87.8489V76.9541Z" fill="black"/>
<path d="M93.4852 76.9541H90.667V79.7723H93.4852V76.9541Z" fill="black"/>
<path d="M34.3035 79.7725H31.4854V82.5906H34.3035V79.7725Z" fill="black"/>
<path d="M37.1219 79.7725H34.3037V82.5906H37.1219V79.7725Z" fill="black"/>
<path d="M39.9398 79.7725H37.1216V82.5906H39.9398V79.7725Z" fill="black"/>
<path d="M45.5765 79.7725H42.7583V82.5906H45.5765V79.7725Z" fill="black"/>
<path d="M51.2127 79.7725H48.3945V82.5906H51.2127V79.7725Z" fill="black"/>
<path d="M56.8489 79.7725H54.0308V82.5906H56.8489V79.7725Z" fill="black"/>
<path d="M59.6668 79.7725H56.8486V82.5906H59.6668V79.7725Z" fill="black"/>
<path d="M62.4852 79.7725H59.667V82.5906H62.4852V79.7725Z" fill="black"/>
<path d="M65.3035 79.7725H62.4854V82.5906H65.3035V79.7725Z" fill="black"/>
<path d="M68.1219 79.7725H65.3037V82.5906H68.1219V79.7725Z" fill="black"/>
<path d="M70.9398 79.7725H68.1216V82.5906H70.9398V79.7725Z" fill="black"/>
<path d="M73.7581 79.7725H70.9399V82.5906H73.7581V79.7725Z" fill="black"/>
<path d="M76.576 79.7725H73.7578V82.5906H76.576V79.7725Z" fill="black"/>
<path d="M79.3944 79.7725H76.5762V82.5906H79.3944V79.7725Z" fill="black"/>
<path d="M82.2127 79.7725H79.3945V82.5906H82.2127V79.7725Z" fill="black"/>
<path d="M87.8489 79.7725H85.0308V82.5906H87.8489V79.7725Z" fill="black"/>
<path d="M90.6673 79.7725H87.8491V82.5906H90.6673V79.7725Z" fill="black"/>
<path d="M25.8489 82.5908H23.0308V85.409H25.8489V82.5908Z" fill="black"/>
<path d="M34.3035 82.5908H31.4854V85.409H34.3035V82.5908Z" fill="black"/>
<path d="M37.1219 82.5908H34.3037V85.409H37.1219V82.5908Z" fill="black"/>
<path d="M39.9398 82.5908H37.1216V85.409H39.9398V82.5908Z" fill="black"/>
<path d="M42.7576 82.5908H39.9395V85.409H42.7576V82.5908Z" fill="black"/>
<path d="M54.0306 82.5908H51.2124V85.409H54.0306V82.5908Z" fill="black"/>
<path d="M59.6668 82.5908H56.8486V85.409H59.6668V82.5908Z" fill="black"/>
<path d="M62.4852 82.5908H59.667V85.409H62.4852V82.5908Z" fill="black"/>
<path d="M65.3035 82.5908H62.4854V85.409H65.3035V82.5908Z" fill="black"/>
<path d="M70.9398 82.5908H68.1216V85.409H70.9398V82.5908Z" fill="black"/>
<path d="M79.3944 82.5908H76.5762V85.409H79.3944V82.5908Z" fill="black"/>
<path d="M85.0306 82.5908H82.2124V85.409H85.0306V82.5908Z" fill="black"/>
<path d="M93.4852 82.5908H90.667V85.409H93.4852V82.5908Z" fill="black"/>
<path d="M25.8489 85.4092H23.0308V88.2274H25.8489V85.4092Z" fill="black"/>
<path d="M28.6673 85.4092H25.8491V88.2274H28.6673V85.4092Z" fill="black"/>
<path d="M37.1219 85.4092H34.3037V88.2274H37.1219V85.4092Z" fill="black"/>
<path d="M39.9398 85.4092H37.1216V88.2274H39.9398V85.4092Z" fill="black"/>
<path d="M42.7576 85.4092H39.9395V88.2274H42.7576V85.4092Z" fill="black"/>
<path d="M51.2127 85.4092H48.3945V88.2274H51.2127V85.4092Z" fill="black"/>
<path d="M59.6668 85.4092H56.8486V88.2274H59.6668V85.4092Z" fill="black"/>
<path d="M62.4852 85.4092H59.667V88.2274H62.4852V85.4092Z" fill="black"/>
<path d="M68.1219 85.4092H65.3037V88.2274H68.1219V85.4092Z" fill="black"/>
<path d="M76.576 85.4092H73.7578V88.2274H76.576V85.4092Z" fill="black"/>
<path d="M79.3944 85.4092H76.5762V88.2274H79.3944V85.4092Z" fill="black"/>
<path d="M85.0306 85.4092H82.2124V88.2274H85.0306V85.4092Z" fill="black"/>
<path d="M87.8489 85.4092H85.0308V88.2274H87.8489V85.4092Z" fill="black"/>
<path d="M31.4852 88.2266H28.667V91.0447H31.4852V88.2266Z" fill="black"/>
<path d="M34.3035 88.2266H31.4854V91.0447H34.3035V88.2266Z" fill="black"/>
<path d="M37.1219 88.2266H34.3037V91.0447H37.1219V88.2266Z" fill="black"/>
<path d="M39.9398 88.2266H37.1216V91.0447H39.9398V88.2266Z" fill="black"/>
<path d="M42.7576 88.2266H39.9395V91.0447H42.7576V88.2266Z" fill="black"/>
<path d="M45.5765 88.2266H42.7583V91.0447H45.5765V88.2266Z" fill="black"/>
<path d="M48.3944 88.2266H45.5762V91.0447H48.3944V88.2266Z" fill="black"/>
<path d="M51.2127 88.2266H48.3945V91.0447H51.2127V88.2266Z" fill="black"/>
<path d="M54.0306 88.2266H51.2124V91.0447H54.0306V88.2266Z" fill="black"/>
<path d="M59.6668 88.2266H56.8486V91.0447H59.6668V88.2266Z" fill="black"/>
<path d="M65.3035 88.2266H62.4854V91.0447H65.3035V88.2266Z" fill="black"/>
<path d="M70.9398 88.2266H68.1216V91.0447H70.9398V88.2266Z" fill="black"/>
<path d="M73.7581 88.2266H70.9399V91.0447H73.7581V88.2266Z" fill="black"/>
<path d="M79.3944 88.2266H76.5762V91.0447H79.3944V88.2266Z" fill="black"/>
<path d="M82.2127 88.2266H79.3945V91.0447H82.2127V88.2266Z" fill="black"/>
<path d="M93.4852 88.2266H90.667V91.0447H93.4852V88.2266Z" fill="black"/>
<path d="M25.8489 91.0449H23.0308V93.8631H25.8489V91.0449Z" fill="black"/>
<path d="M31.4852 91.0449H28.667V93.8631H31.4852V91.0449Z" fill="black"/>
<path d="M34.3035 91.0449H31.4854V93.8631H34.3035V91.0449Z" fill="black"/>
<path d="M39.9398 91.0449H37.1216V93.8631H39.9398V91.0449Z" fill="black"/>
<path d="M45.5765 91.0449H42.7583V93.8631H45.5765V91.0449Z" fill="black"/>
<path d="M48.3944 91.0449H45.5762V93.8631H48.3944V91.0449Z" fill="black"/>
<path d="M51.2127 91.0449H48.3945V93.8631H51.2127V91.0449Z" fill="black"/>
<path d="M54.0306 91.0449H51.2124V93.8631H54.0306V91.0449Z" fill="black"/>
<path d="M56.8489 91.0449H54.0308V93.8631H56.8489V91.0449Z" fill="black"/>
<path d="M62.4852 91.0449H59.667V93.8631H62.4852V91.0449Z" fill="black"/>
<path d="M68.1219 91.0449H65.3037V93.8631H68.1219V91.0449Z" fill="black"/>
<path d="M76.576 91.0449H73.7578V93.8631H76.576V91.0449Z" fill="black"/>
<path d="M82.2127 91.0449H79.3945V93.8631H82.2127V91.0449Z" fill="black"/>
<path d="M87.8489 91.0449H85.0308V93.8631H87.8489V91.0449Z" fill="black"/>
<path d="M17.2535 0.863281H3.44444H0.485352V3.82237V17.6315V20.5905H3.44444H17.2535H20.2126V17.6315V3.82237V0.863281H17.2535ZM17.2535 17.6315H3.44444V3.82237H17.2535V17.6315Z" fill="black"/>
<path d="M90.526 0.863281H76.7169H73.7578V3.82237V17.6315V20.5905H76.7169H90.526H93.4851V17.6315V3.82237V0.863281H90.526ZM90.526 17.6315H76.7169V3.82237H90.526V17.6315Z" fill="black"/>
<path d="M17.2535 74.1357H3.44444H0.485352V77.0948V90.9039V93.863H3.44444H17.2535H20.2126V90.9039V77.0948V74.1357H17.2535ZM17.2535 90.9039H3.44444V77.0948H17.2535V90.9039Z" fill="black"/>
<path d="M14.5761 6.49902H6.12158V14.9536H14.5761V6.49902Z" fill="black"/>
<path d="M87.8491 6.49902H79.3945V14.9536H87.8491V6.49902Z" fill="black"/>
<path d="M14.5761 79.7725H6.12158V88.227H14.5761V79.7725Z" fill="black"/>
</svg>
